<svg width="32" height="32" viewBox="0 0 32 32" fill="none" xmlns="http://www.w3.org/2000/svg">
<mask id="path-1-inside-1" fill="white">
<path fill-rule="evenodd" clip-rule="evenodd" d="M24.214 16.0018C24.783 15.5148 25.3475 14.993 25.9019 14.4386C31.0821 9.25847 33.4151 3.19273 31.1128 0.890429C28.8105 -1.41187 22.7447 0.921109 17.5646 6.10128C17.0104 6.65545 16.4888 7.21974 16.002 7.78848C15.5144 7.21866 14.9919 6.65328 14.4367 6.09807C9.25655 0.917896 3.1908 -1.41508 0.888501 0.887216C-1.4138 3.18952 0.919179 9.25526 6.09935 14.4354C6.65421 14.9903 7.21923 15.5125 7.78869 15.9998C7.21879 16.4875 6.65334 17.01 6.09807 17.5653C0.917896 22.7455 -1.41508 28.8112 0.887216 31.1135C3.18952 33.4158 9.25526 31.0828 14.4354 25.9027C14.9904 25.3477 15.5126 24.7826 16 24.2131C16.4871 24.7822 17.009 25.3468 17.5635 25.9013C22.7436 31.0815 28.8094 33.4145 31.1117 31.1122C33.414 28.8099 31.081 22.7441 25.9008 17.564C25.3468 17.0099 24.7826 16.4885 24.214 16.0018Z"/>
</mask>
<path d="M24.214 16.0018L22.5047 14.0046L20.1713 16.0017L22.5046 17.9989L24.214 16.0018ZM25.9019 14.4386L27.7608 16.2975L27.7608 16.2975L25.9019 14.4386ZM31.1128 0.890429L29.2539 2.74929V2.74929L31.1128 0.890429ZM17.5646 6.10128L19.4234 7.96015L19.4234 7.96015L17.5646 6.10128ZM16.002 7.78848L14.0046 9.49762L16.0017 11.8315L17.9992 9.49791L16.002 7.78848ZM14.4367 6.09807L12.5779 7.95694L14.4367 6.09807ZM0.888501 0.887216L2.74736 2.74608L0.888501 0.887216ZM6.09935 14.4354L7.95822 12.5766L7.95822 12.5766L6.09935 14.4354ZM7.78869 15.9998L9.49781 17.9972L11.832 15.9999L9.49793 14.0025L7.78869 15.9998ZM6.09807 17.5653L4.23921 15.7064L4.23921 15.7064L6.09807 17.5653ZM0.887216 31.1135L2.74608 29.2546H2.74608L0.887216 31.1135ZM14.4354 25.9027L16.2943 27.7615L14.4354 25.9027ZM16 24.2131L17.9973 22.5037L15.9999 20.17L14.0027 22.5039L16 24.2131ZM17.5635 25.9013L19.4223 24.0425L17.5635 25.9013ZM31.1117 31.1122L29.2528 29.2533L31.1117 31.1122ZM25.9008 17.564L24.042 19.4228L25.9008 17.564ZM25.9234 17.999C26.5444 17.4675 27.1588 16.8995 27.7608 16.2975L24.0431 12.5798C23.5363 13.0865 23.0216 13.5621 22.5047 14.0046L25.9234 17.999ZM27.7608 16.2975C30.5487 13.5096 32.6635 10.3977 33.7669 7.52903C34.3173 6.09808 34.6616 4.60889 34.6264 3.18508C34.5906 1.74258 34.1521 0.21198 32.9716 -0.968435L29.2539 2.74929C29.2554 2.75077 29.2587 2.75415 29.2643 2.76316C29.2703 2.77266 29.2823 2.79391 29.2964 2.83221C29.3256 2.911 29.3641 3.06363 29.3703 3.31524C29.3832 3.83816 29.2523 4.62085 28.8597 5.64164C28.0771 7.67645 26.4353 10.1875 24.0431 12.5798L27.7608 16.2975ZM32.9716 -0.968435C31.7912 -2.14885 30.2606 -2.58742 28.8181 -2.62314C27.3943 -2.6584 25.9051 -2.31404 24.4742 -1.76368C21.6055 -0.660341 18.4936 1.4545 15.7057 4.24242L19.4234 7.96015C21.8157 5.56789 24.3268 3.92616 26.3616 3.14354C27.3824 2.75092 28.165 2.61996 28.688 2.63291C28.9396 2.63914 29.0922 2.67765 29.171 2.70676C29.2093 2.72091 29.2305 2.7329 29.24 2.73887C29.2491 2.74452 29.2524 2.74782 29.2539 2.74929L32.9716 -0.968435ZM15.7057 4.24242C15.1039 4.84422 14.5362 5.45834 14.0049 6.07905L17.9992 9.49791C18.4415 8.98115 18.9169 8.46667 19.4234 7.96015L15.7057 4.24242ZM17.9994 6.07934C17.4673 5.45744 16.8985 4.84214 16.2956 4.23921L12.5779 7.95694C13.0853 8.46442 13.5616 8.97987 14.0046 9.49762L17.9994 6.07934ZM16.2956 4.23921C13.5077 1.45129 10.3958 -0.663554 7.5271 -1.76689C6.09615 -2.31726 4.60696 -2.66162 3.18315 -2.62636C1.74065 -2.59064 0.210053 -2.15206 -0.970363 -0.971648L2.74736 2.74608C2.74884 2.7446 2.75222 2.74131 2.76123 2.73565C2.77073 2.72969 2.79198 2.71769 2.83028 2.70354C2.90907 2.67443 3.0617 2.63592 3.31331 2.62969C3.83623 2.61674 4.61892 2.74771 5.63971 3.14032C7.67452 3.92294 10.1856 5.56468 12.5779 7.95694L16.2956 4.23921ZM-0.970363 -0.971648C-2.15078 0.208768 -2.58935 1.73936 -2.62507 3.18187C-2.66033 4.60567 -2.31597 6.09487 -1.76561 7.52582C-0.662271 10.3945 1.45257 13.5064 4.24049 16.2943L7.95822 12.5766C5.56596 10.1843 3.92423 7.67324 3.14161 5.63843C2.74899 4.61763 2.61803 3.83495 2.63098 3.31202C2.63721 3.06041 2.67572 2.90778 2.70483 2.82899C2.71898 2.7907 2.73097 2.76945 2.73694 2.75994C2.74259 2.75094 2.74589 2.74756 2.74736 2.74608L-0.970363 -0.971648ZM4.24049 16.2943C4.84304 16.8969 5.45795 17.4653 6.07945 17.9971L9.49793 14.0025C8.98051 13.5597 8.46538 13.0837 7.95822 12.5766L4.24049 16.2943ZM6.07957 14.0024C5.45759 14.5346 4.84221 15.1034 4.23921 15.7064L7.95693 19.4242C8.46448 18.9166 8.98 18.4403 9.49781 17.9972L6.07957 14.0024ZM4.23921 15.7064C1.45129 18.4943 -0.663554 21.6062 -1.76689 24.4749C-2.31726 25.9059 -2.66162 27.395 -2.62636 28.8189C-2.59064 30.2614 -2.15206 31.792 -0.971648 32.9724L2.74608 29.2546C2.7446 29.2532 2.74131 29.2498 2.73565 29.2408C2.72969 29.2313 2.71769 29.21 2.70354 29.1717C2.67443 29.0929 2.63592 28.9403 2.62969 28.6887C2.61674 28.1658 2.74771 27.3831 3.14032 26.3623C3.92294 24.3275 5.56468 21.8164 7.95693 19.4241L4.23921 15.7064ZM-0.971648 32.9724C0.208767 34.1528 1.73936 34.5914 3.18187 34.6271C4.60567 34.6623 6.09487 34.318 7.52582 33.7676C10.3945 32.6643 13.5064 30.5494 16.2943 27.7615L12.5766 24.0438C10.1843 26.436 7.67324 28.0778 5.63843 28.8604C4.61763 29.253 3.83495 29.384 3.31203 29.371C3.06041 29.3648 2.90778 29.3263 2.82899 29.2972C2.7907 29.283 2.76945 29.271 2.75995 29.2651C2.75094 29.2594 2.74756 29.2561 2.74608 29.2546L-0.971648 32.9724ZM16.2943 27.7615C16.8969 27.1589 17.4654 26.5439 17.9974 25.9223L14.0027 22.5039C13.5598 23.0213 13.0838 23.5366 12.5766 24.0438L16.2943 27.7615ZM19.4223 24.0425C18.9155 23.5356 18.4398 23.0208 17.9973 22.5037L14.0028 25.9224C14.5344 26.5435 15.1024 27.158 15.7046 27.7602L19.4223 24.0425ZM29.2528 29.2533C29.2514 29.2548 29.248 29.2581 29.239 29.2637C29.2295 29.2697 29.2082 29.2817 29.1699 29.2959C29.0911 29.325 28.9385 29.3635 28.6869 29.3697C28.164 29.3827 27.3813 29.2517 26.3605 28.8591C24.3257 28.0765 21.8146 26.4347 19.4223 24.0425L15.7046 27.7602C18.4925 30.5481 21.6044 32.663 24.4731 33.7663C25.904 34.3167 27.3932 34.661 28.817 34.6258C30.2595 34.59 31.7901 34.1515 32.9706 32.9711L29.2528 29.2533ZM24.042 19.4228C26.4342 21.8151 28.076 24.3262 28.8586 26.361C29.2512 27.3818 29.3822 28.1645 29.3692 28.6874C29.363 28.939 29.3245 29.0916 29.2954 29.1704C29.2812 29.2087 29.2692 29.23 29.2633 29.2395C29.2576 29.2485 29.2543 29.2518 29.2528 29.2533L32.9706 32.9711C34.151 31.7906 34.5895 30.26 34.6253 28.8175C34.6605 27.3937 34.3162 25.9045 33.7658 24.4736C32.6625 21.6049 30.5476 18.493 27.7597 15.7051L24.042 19.4228ZM22.5046 17.9989C23.0212 18.4411 23.5356 18.9164 24.042 19.4228L27.7597 15.7051C27.158 15.1034 26.5441 14.5358 25.9235 14.0047L22.5046 17.9989Z" fill="black" mask="url(#path-1-inside-1)"/>
</svg>
